<?xml version="1.0" encoding="UTF-8"?>
<svg xmlns="http://www.w3.org/2000/svg" width="960" height="720" viewBox="0 0 960 720" role="img" aria-label="What Plants Need to Start">
  <rect x="0" y="0" width="960" height="720" fill="#F8FBFD"/>
  <rect x="60" y="52" width="840" height="84" rx="24" fill="#0056b3"/>
  <text x="88" y="104" font-family="Arial, sans-serif" font-weight="700" font-size="34" fill="#FFFFFF">What Plants Need to Start</text>
  <text x="88" y="146" font-family="Arial, sans-serif" font-size="18" fill="#6c757d">CBSE-inspired classroom explanation flow</text>
  
      <rect x="100" y="170" width="760" height="120" rx="28" fill="#ffffff" stroke="#0056b3" stroke-width="4"/>
      <circle cx="154" cy="230" r="28" fill="#ffc107"/>
      <text x="154" y="240" text-anchor="middle" font-family="Arial, sans-serif" font-weight="700" font-size="30" fill="#ffffff">1</text>
      <foreignObject x="210" y="192" width="600" height="78">
        <div xmlns="http://www.w3.org/1999/xhtml" style="font-family: Arial, sans-serif; font-size: 24px; line-height: 1.35; color: #212529;">
          The 3 Essential Ingredients:
        </div>
      </foreignObject>
      <line x1="480" y1="290" x2="480" y2="324" stroke="#ffc107" stroke-width="6" stroke-linecap="round"/>
    
      <rect x="100" y="324" width="760" height="120" rx="28" fill="#ffffff" stroke="#0056b3" stroke-width="4"/>
      <circle cx="154" cy="384" r="28" fill="#ffc107"/>
      <text x="154" y="394" text-anchor="middle" font-family="Arial, sans-serif" font-weight="700" font-size="30" fill="#ffffff">2</text>
      <foreignObject x="210" y="346" width="600" height="78">
        <div xmlns="http://www.w3.org/1999/xhtml" style="font-family: Arial, sans-serif; font-size: 24px; line-height: 1.35; color: #212529;">
          - ☀️ Sunlight
        </div>
      </foreignObject>
      <line x1="480" y1="444" x2="480" y2="478" stroke="#ffc107" stroke-width="6" stroke-linecap="round"/>
    
      <rect x="100" y="478" width="760" height="120" rx="28" fill="#ffffff" stroke="#0056b3" stroke-width="4"/>
      <circle cx="154" cy="538" r="28" fill="#ffc107"/>
      <text x="154" y="548" text-anchor="middle" font-family="Arial, sans-serif" font-weight="700" font-size="30" fill="#ffffff">3</text>
      <foreignObject x="210" y="500" width="600" height="78">
        <div xmlns="http://www.w3.org/1999/xhtml" style="font-family: Arial, sans-serif; font-size: 24px; line-height: 1.35; color: #212529;">
          - 💧 Water (from soil)
        </div>
      </foreignObject>
      <line x1="480" y1="598" x2="480" y2="632" stroke="#ffc107" stroke-width="6" stroke-linecap="round"/>
    
      <rect x="100" y="632" width="760" height="120" rx="28" fill="#ffffff" stroke="#0056b3" stroke-width="4"/>
      <circle cx="154" cy="692" r="28" fill="#ffc107"/>
      <text x="154" y="702" text-anchor="middle" font-family="Arial, sans-serif" font-weight="700" font-size="30" fill="#ffffff">4</text>
      <foreignObject x="210" y="654" width="600" height="78">
        <div xmlns="http://www.w3.org/1999/xhtml" style="font-family: Arial, sans-serif; font-size: 24px; line-height: 1.35; color: #212529;">
          - 🌬️ CO2 (Carbon Dioxide from air)
        </div>
      </foreignObject>
      
    
</svg>